<svg id="Layer_1" data-name="Layer 1" xmlns="http://www.w3.org/2000/svg" viewBox="0 0 792 611.97"><defs><style>.cls-1,.cls-11,.cls-12,.cls-13,.cls-2,.cls-3,.cls-4,.cls-5,.cls-6,.cls-7,.cls-9{fill:none;}.cls-1,.cls-2,.cls-3,.cls-4,.cls-5,.cls-6{stroke:#c3ee99;}.cls-1,.cls-11,.cls-12,.cls-13,.cls-2,.cls-3,.cls-4,.cls-5,.cls-6,.cls-9{stroke-linecap:round;}.cls-1,.cls-11,.cls-12,.cls-2,.cls-3,.cls-4,.cls-5,.cls-6,.cls-9{stroke-linejoin:round;}.cls-1,.cls-2,.cls-3,.cls-4,.cls-5,.cls-6,.cls-7,.cls-8{stroke-width:4px;}.cls-2{stroke-dasharray:0 12.11;}.cls-3{stroke-dasharray:0 12.1;}.cls-4{stroke-dasharray:0 12.1;}.cls-5{stroke-dasharray:0 12.14;}.cls-6{stroke-dasharray:0 11.91;}.cls-10,.cls-11,.cls-12,.cls-13,.cls-7,.cls-8,.cls-9{stroke:#408322;}.cls-10,.cls-13,.cls-7,.cls-8{stroke-miterlimit:10;}.cls-8{fill:#fff;}.cls-9{stroke-width:3px;}.cls-10{fill:#408322;}.cls-11{stroke-width:2px;}.cls-12,.cls-13{stroke-width:2px;}</style></defs><title>IBM_Blockchain_Whatis_Illustration1</title><line class="cls-1" x1="591.65" y1="311.55" x2="591.65" y2="311.55"/><line class="cls-2" x1="580.47" y1="316.22" x2="273.27" y2="444.48"/><line class="cls-1" x1="267.69" y1="446.82" x2="267.69" y2="446.82"/><line class="cls-3" x1="272.29" y1="435.62" x2="398.82" y2="127.86"/><line class="cls-1" x1="401.12" y1="122.27" x2="401.12" y2="122.27"/><line class="cls-4" x1="405.77" y1="133.44" x2="533.52" y2="440.69"/><line class="cls-1" x1="535.84" y1="446.27" x2="535.84" y2="446.27"/><line class="cls-5" x1="524.63" y1="441.63" x2="216.2" y2="313.87"/><line class="cls-1" x1="210.6" y1="311.55" x2="210.6" y2="311.55"/><line class="cls-6" x1="222.51" y1="311.55" x2="585.69" y2="311.55"/><line class="cls-1" x1="210.6" y1="311.79" x2="210.6" y2="311.79"/><line class="cls-2" x1="221.77" y1="307.13" x2="528.97" y2="178.86"/><line class="cls-1" x1="534.56" y1="176.53" x2="534.56" y2="176.53"/><line class="cls-3" x1="529.96" y1="187.72" x2="403.42" y2="495.48"/><line class="cls-1" x1="401.12" y1="501.08" x2="401.12" y2="501.08"/><line class="cls-4" x1="396.48" y1="489.9" x2="268.72" y2="182.66"/><line class="cls-1" x1="266.4" y1="177.07" x2="266.4" y2="177.07"/><line class="cls-5" x1="277.62" y1="181.72" x2="586.04" y2="309.47"/><line class="cls-1" x1="591.65" y1="311.79" x2="591.65" y2="311.79"/><line class="cls-6" x1="579.74" y1="311.79" x2="216.55" y2="311.79"/><polygon class="cls-7" points="401.12 120.03 535.84 175.83 591.65 310.55 535.84 445.27 401.12 501.08 266.4 445.27 210.6 310.55 266.4 175.83 401.12 120.03"/><circle class="cls-8" cx="401.12" cy="120.03" r="54"/><circle class="cls-8" cx="535.01" cy="175.27" r="54"/><circle class="cls-8" cx="267.69" cy="175.27" r="54"/><circle class="cls-8" cx="401.12" cy="501.06" r="54"/><circle class="cls-8" cx="535.01" cy="445.82" r="54"/><circle class="cls-8" cx="267.69" cy="445.82" r="54"/><circle class="cls-8" cx="591.65" cy="310.54" r="54"/><circle class="cls-8" cx="210.6" cy="310.54" r="54"/><polygon class="cls-8" points="401.12 256.54 449.24 284.32 449.24 339.89 401.12 367.67 353 339.89 353 284.32 401.12 256.54"/><circle class="cls-9" cx="401.12" cy="319.29" r="17.5"/><path class="cls-10" d="M404.26,317.68a3.08,3.08,0,1,0-4.25,2.85v5.31a1.16,1.16,0,1,0,2.33,0v-5.31a3.08,3.08,0,0,0,1.92-2.85"/><path class="cls-9" d="M392.4,304.06V293a8.72,8.72,0,1,1,17.44,0v11"/><path id="_Compound_Path_" data-name="&lt;Compound Path&gt;" class="cls-9" d="M413.92,501.06l-12.57-7.53v7.53M381.8,525.5h-4.89v-32l11.87,7.53v-7.53l12.57,7.53m12.57,0V476.65h11.86V525.5h-44"/><polygon class="cls-11" points="267.68 414.99 296.09 437.62 239.28 437.62 267.68 414.99"/><rect class="cls-12" x="239.28" y="466.77" width="56.81" height="5"/><rect class="cls-12" x="242.26" y="461.77" width="50.94" height="5"/><circle class="cls-13" cx="267.65" cy="427.66" r="4.82"/><line class="cls-13" x1="244.02" y1="437.62" x2="244.02" y2="461.77"/><line class="cls-13" x1="255.08" y1="437.62" x2="255.08" y2="461.77"/><line class="cls-13" x1="249.72" y1="441.76" x2="249.72" y2="458.86"/><line class="cls-13" x1="280.46" y1="437.62" x2="280.46" y2="461.77"/><line class="cls-13" x1="291.52" y1="437.62" x2="291.52" y2="461.77"/><line class="cls-13" x1="286.17" y1="441.76" x2="286.17" y2="458.86"/><polygon class="cls-12" points="537.64 414.94 566.07 434.52 509.22 434.52 537.64 414.94"/><line class="cls-13" x1="513.02" y1="439.91" x2="562.26" y2="439.91"/><rect class="cls-12" x="509.22" y="466.74" width="56.85" height="5.01"/><rect class="cls-12" x="512.01" y="461.73" width="51.07" height="5.01"/><rect class="cls-13" x="516.63" y="445.42" width="7.5" height="12.12"/><rect class="cls-13" x="533.87" y="445.42" width="7.5" height="12.12"/><rect class="cls-13" x="551.11" y="445.42" width="7.5" height="12.12"/><circle class="cls-13" cx="537.66" cy="426.03" r="4.83"/><path id="_Path_" data-name="&lt;Path&gt;" class="cls-9" d="M386.09,142.56h-8.31a2,2,0,0,1-2-2V119a2,2,0,0,1,.59-1.43l22.42-22.42a2,2,0,0,1,2.86,0L424,117.54a2,2,0,0,1,.59,1.43v21.58a2,2,0,0,1-2,2H386.09Z"/><path id="_Path_2" data-name="&lt;Path&gt;" class="cls-9" d="M396.67,142.56V128.3a4,4,0,0,0-4-4h-2.57a4,4,0,0,0-4,4v14.27"/><circle id="_Path_3" data-name="&lt;Path&gt;" class="cls-9" cx="196.71" cy="290.21" r="4.1"/><path id="_Path_4" data-name="&lt;Path&gt;" class="cls-9" d="M200.11,335V317.65c2.26-.82,3.9-2.11,3.9-4.41v-7.57a7.3,7.3,0,1,0-14.6,0v7.57c0,2.31,1.64,3.6,3.9,4.41V335"/><circle id="_Path_5" data-name="&lt;Path&gt;" class="cls-9" cx="224.48" cy="290.21" r="4.1"/><path id="_Path_6" data-name="&lt;Path&gt;" class="cls-9" d="M227.88,335V317.65c2.26-.82,3.9-2.11,3.9-4.41v-7.57a7.3,7.3,0,1,0-14.6,0v7.57c0,2.31,1.64,3.6,3.9,4.41V335"/><path id="_Path_7" data-name="&lt;Path&gt;" class="cls-9" d="M615.33,335a23.69,23.69,0,0,0-18.2-23,13.5,13.5,0,1,0-11,0A23.69,23.69,0,0,0,568,335"/><polygon class="cls-11" points="537.67 142.61 509.26 165.24 566.07 165.24 537.67 142.61"/><rect class="cls-12" x="509.26" y="194.39" width="56.81" height="5" transform="translate(1075.34 393.78) rotate(-180)"/><rect class="cls-12" x="512.16" y="189.39" width="50.94" height="5" transform="translate(1075.25 383.78) rotate(-180)"/><circle class="cls-13" cx="537.7" cy="155.28" r="4.82"/><line class="cls-13" x1="561.33" y1="165.24" x2="561.33" y2="189.39"/><line class="cls-13" x1="550.28" y1="165.24" x2="550.28" y2="189.39"/><line class="cls-13" x1="555.63" y1="169.38" x2="555.63" y2="186.48"/><line class="cls-13" x1="524.89" y1="165.24" x2="524.89" y2="189.39"/><line class="cls-13" x1="513.83" y1="165.24" x2="513.83" y2="189.39"/><line class="cls-13" x1="519.19" y1="169.38" x2="519.19" y2="186.48"/><polygon class="cls-12" points="267.71 142.56 239.28 162.14 296.13 162.14 267.71 142.56"/><line class="cls-13" x1="292.33" y1="167.53" x2="243.09" y2="167.53"/><rect class="cls-12" x="239.28" y="194.36" width="56.85" height="5.01" transform="translate(535.42 393.73) rotate(-180)"/><rect class="cls-12" x="242.27" y="189.35" width="51.07" height="5.01" transform="translate(535.62 383.71) rotate(-180)"/><rect class="cls-13" x="281.22" y="173.04" width="7.5" height="12.12" transform="translate(569.95 358.19) rotate(-180)"/><rect class="cls-13" x="263.98" y="173.04" width="7.5" height="12.12" transform="translate(535.47 358.19) rotate(-180)"/><rect class="cls-13" x="246.75" y="173.04" width="7.5" height="12.12" transform="translate(500.99 358.19) rotate(-180)"/><circle class="cls-13" cx="267.69" cy="153.65" r="4.83"/></svg>